<mxfile host="Electron" agent="Mozilla/5.0 (X11; Linux x86_64) AppleWebKit/537.36 (KHTML, like Gecko) draw.io/24.7.17 Chrome/128.0.6613.186 Electron/32.2.5 Safari/537.36" version="24.7.17" pages="3">
  <diagram name="dependencies" id="Z66_oNA3LDT2TWpV4_Dd">
    <mxGraphModel dx="2074" dy="1128" grid="1" gridSize="10" guides="1" tooltips="1" connect="1" arrows="1" fold="1" page="1" pageScale="1" pageWidth="420" pageHeight="580" math="0" shadow="0">
      <root>
        <mxCell id="0" />
        <mxCell id="1" parent="0" />
        <mxCell id="Yk6LwgMBLTxRyezcrGgj-11" value="UI/UX" style="rounded=0;whiteSpace=wrap;html=1;verticalAlign=top;fillColor=#cdeb8b;strokeColor=#36393d;fontSize=14;fontColor=#000000;" parent="1" vertex="1">
          <mxGeometry x="40" y="170" width="340" height="260" as="geometry" />
        </mxCell>
        <mxCell id="Yk6LwgMBLTxRyezcrGgj-12" value="com.&lt;span style=&quot;background-color: initial;&quot;&gt;google.&lt;/span&gt;&lt;div&gt;&lt;div&gt;android&lt;span style=&quot;background-color: initial;&quot;&gt;.&lt;/span&gt;&lt;span style=&quot;background-color: initial;&quot;&gt;material&lt;/span&gt;&lt;/div&gt;&lt;/div&gt;" style="rounded=0;whiteSpace=wrap;html=1;fontSize=12;fontStyle=1;fillColor=#60a917;strokeColor=#2D7600;fontColor=#ffffff;" parent="1" vertex="1">
          <mxGeometry x="270" y="200" width="100" height="40" as="geometry" />
        </mxCell>
        <mxCell id="Yk6LwgMBLTxRyezcrGgj-1" value="Data Source" style="rounded=0;whiteSpace=wrap;html=1;verticalAlign=top;fillColor=#cce5ff;strokeColor=#36393d;fontSize=14;fontColor=#000000;" parent="1" vertex="1">
          <mxGeometry x="40" y="40" width="340" height="110" as="geometry" />
        </mxCell>
        <mxCell id="Yk6LwgMBLTxRyezcrGgj-2" value="com.squareup.&lt;div&gt;retrofit2&lt;/div&gt;" style="rounded=0;whiteSpace=wrap;html=1;fontSize=12;fontStyle=1;fillColor=#1ba1e2;strokeColor=#006EAF;fontColor=#ffffff;" parent="1" vertex="1">
          <mxGeometry x="50" y="70" width="100" height="40" as="geometry" />
        </mxCell>
        <mxCell id="Yk6LwgMBLTxRyezcrGgj-3" value="androidx.paging" style="rounded=0;whiteSpace=wrap;html=1;fontSize=12;fontStyle=1;fillColor=#1ba1e2;strokeColor=#006EAF;fontColor=#ffffff;" parent="1" vertex="1">
          <mxGeometry x="160" y="70" width="100" height="40" as="geometry" />
        </mxCell>
        <mxCell id="Yk6LwgMBLTxRyezcrGgj-4" value="Guava &lt;font style=&quot;font-size: 8px;&quot; face=&quot;Courier New&quot;&gt;ListenableFuture&lt;/font&gt; &amp;amp; adapter" style="rounded=0;whiteSpace=wrap;html=1;fontSize=10;fontStyle=0;fillColor=#1ba1e2;strokeColor=#006EAF;fontColor=#ffffff;" parent="1" vertex="1">
          <mxGeometry x="50" y="120" width="190" height="20" as="geometry" />
        </mxCell>
        <mxCell id="Yk6LwgMBLTxRyezcrGgj-30" value="androidx.&lt;div&gt;&lt;span style=&quot;background-color: initial;&quot;&gt;appcompat&lt;/span&gt;&lt;/div&gt;" style="rounded=0;whiteSpace=wrap;html=1;fontSize=12;fontStyle=1;fillColor=#60a917;strokeColor=#2D7600;fontColor=#ffffff;" parent="1" vertex="1">
          <mxGeometry x="270" y="250" width="100" height="40" as="geometry" />
        </mxCell>
        <mxCell id="Yk6LwgMBLTxRyezcrGgj-31" value="&lt;font style=&quot;font-size: 8px;&quot; face=&quot;Courier New&quot;&gt;SplashScreen&lt;/font&gt; API" style="rounded=0;whiteSpace=wrap;html=1;fontSize=10;fontStyle=0;fillColor=#60a917;strokeColor=#2D7600;fontColor=#ffffff;" parent="1" vertex="1">
          <mxGeometry x="270" y="400" width="100" height="20" as="geometry" />
        </mxCell>
        <mxCell id="Yk6LwgMBLTxRyezcrGgj-33" value="Gson converter" style="rounded=0;whiteSpace=wrap;html=1;fontSize=10;fontStyle=0;fillColor=#1ba1e2;strokeColor=#006EAF;fontColor=#ffffff;" parent="1" vertex="1">
          <mxGeometry x="250" y="120" width="120" height="20" as="geometry" />
        </mxCell>
        <mxCell id="Yk6LwgMBLTxRyezcrGgj-18" value="Layout" style="rounded=0;whiteSpace=wrap;html=1;verticalAlign=top;fillColor=#008a00;strokeColor=#005700;fontSize=14;fontColor=#ffffff;" parent="1" vertex="1">
          <mxGeometry x="50" y="200" width="210" height="120" as="geometry" />
        </mxCell>
        <mxCell id="Yk6LwgMBLTxRyezcrGgj-17" value="androidx.coordinatorlayout" style="rounded=0;whiteSpace=wrap;html=1;fontSize=12;fontStyle=1;fillColor=#60a917;strokeColor=#2D7600;fontColor=#ffffff;" parent="1" vertex="1">
          <mxGeometry x="60" y="230" width="190" height="20" as="geometry" />
        </mxCell>
        <mxCell id="Yk6LwgMBLTxRyezcrGgj-19" value="androidx.constraintlayout" style="rounded=0;whiteSpace=wrap;html=1;fontSize=12;fontStyle=1;fillColor=#60a917;strokeColor=#2D7600;fontColor=#ffffff;" parent="1" vertex="1">
          <mxGeometry x="60" y="260" width="190" height="20" as="geometry" />
        </mxCell>
        <mxCell id="Yk6LwgMBLTxRyezcrGgj-20" value="androidx.gridlayout" style="rounded=0;whiteSpace=wrap;html=1;fontSize=12;fontStyle=1;fillColor=#60a917;strokeColor=#2D7600;fontColor=#ffffff;" parent="1" vertex="1">
          <mxGeometry x="60" y="290" width="190" height="20" as="geometry" />
        </mxCell>
        <mxCell id="Yk6LwgMBLTxRyezcrGgj-21" value="View" style="rounded=0;whiteSpace=wrap;html=1;verticalAlign=top;fillColor=#008a00;strokeColor=#005700;fontSize=14;fontColor=#ffffff;" parent="1" vertex="1">
          <mxGeometry x="50" y="330" width="210" height="90" as="geometry" />
        </mxCell>
        <mxCell id="Yk6LwgMBLTxRyezcrGgj-22" value="androidx.cardview" style="rounded=0;whiteSpace=wrap;html=1;fontSize=12;fontStyle=1;fillColor=#60a917;strokeColor=#2D7600;fontColor=#ffffff;" parent="1" vertex="1">
          <mxGeometry x="60" y="360" width="190" height="20" as="geometry" />
        </mxCell>
        <mxCell id="Yk6LwgMBLTxRyezcrGgj-23" value="androidx.recyclerview" style="rounded=0;whiteSpace=wrap;html=1;fontSize=12;fontStyle=1;fillColor=#60a917;strokeColor=#2D7600;fontColor=#ffffff;" parent="1" vertex="1">
          <mxGeometry x="60" y="390" width="190" height="20" as="geometry" />
        </mxCell>
        <mxCell id="Yk6LwgMBLTxRyezcrGgj-44" value="androidx.room" style="rounded=0;whiteSpace=wrap;html=1;fontSize=12;fontStyle=1;fillColor=#1ba1e2;strokeColor=#006EAF;fontColor=#ffffff;" parent="1" vertex="1">
          <mxGeometry x="270" y="70" width="100" height="40" as="geometry" />
        </mxCell>
        <mxCell id="Yk6LwgMBLTxRyezcrGgj-50" value="androidx.&lt;div&gt;&lt;span style=&quot;background-color: initial;&quot;&gt;navigation&lt;/span&gt;&lt;/div&gt;" style="rounded=0;whiteSpace=wrap;html=1;fontSize=12;fontStyle=1;fillColor=#60a917;strokeColor=#2D7600;fontColor=#ffffff;" parent="1" vertex="1">
          <mxGeometry x="270" y="350" width="100" height="40" as="geometry" />
        </mxCell>
        <mxCell id="Yk6LwgMBLTxRyezcrGgj-51" value="androidx.&lt;div&gt;&lt;span style=&quot;background-color: initial;&quot;&gt;lifecycle&lt;/span&gt;&lt;/div&gt;" style="rounded=0;whiteSpace=wrap;html=1;fontSize=12;fontStyle=1;fillColor=#60a917;strokeColor=#2D7600;fontColor=#ffffff;" parent="1" vertex="1">
          <mxGeometry x="270" y="300" width="100" height="40" as="geometry" />
        </mxCell>
        <mxCell id="Yk6LwgMBLTxRyezcrGgj-53" value="Helper" style="rounded=0;whiteSpace=wrap;html=1;verticalAlign=top;fillColor=#ffcccc;strokeColor=#36393d;fontSize=14;fontColor=#000000;" parent="1" vertex="1">
          <mxGeometry x="40" y="450" width="230" height="90" as="geometry" />
        </mxCell>
        <mxCell id="Yk6LwgMBLTxRyezcrGgj-54" value="org.parceler" style="rounded=0;whiteSpace=wrap;html=1;fontSize=12;fontStyle=1;fillColor=#d80073;strokeColor=#A50040;fontColor=#ffffff;" parent="1" vertex="1">
          <mxGeometry x="50" y="480" width="100" height="50" as="geometry" />
        </mxCell>
        <mxCell id="Yk6LwgMBLTxRyezcrGgj-55" value="org.apache.&lt;div&gt;commons&lt;/div&gt;" style="rounded=0;whiteSpace=wrap;html=1;fontSize=12;fontStyle=1;fillColor=#d80073;strokeColor=#A50040;fontColor=#ffffff;" parent="1" vertex="1">
          <mxGeometry x="160" y="480" width="100" height="50" as="geometry" />
        </mxCell>
        <mxCell id="Yk6LwgMBLTxRyezcrGgj-59" value="Test" style="rounded=0;whiteSpace=wrap;html=1;verticalAlign=top;fillColor=#eeeeee;strokeColor=#36393d;fontSize=14;fontColor=#000000;" parent="1" vertex="1">
          <mxGeometry x="280" y="450" width="100" height="90" as="geometry" />
        </mxCell>
        <mxCell id="Yk6LwgMBLTxRyezcrGgj-60" value="Truth assertion" style="rounded=0;whiteSpace=wrap;html=1;fontSize=10;fontStyle=0;fillColor=#647687;fontColor=#ffffff;strokeColor=#314354;" parent="1" vertex="1">
          <mxGeometry x="290" y="510" width="80" height="20" as="geometry" />
        </mxCell>
        <mxCell id="Yk6LwgMBLTxRyezcrGgj-63" value="Robolectric mock" style="rounded=0;whiteSpace=wrap;html=1;fontSize=10;fontStyle=0;fillColor=#647687;fontColor=#ffffff;strokeColor=#314354;" parent="1" vertex="1">
          <mxGeometry x="290" y="480" width="80" height="20" as="geometry" />
        </mxCell>
      </root>
    </mxGraphModel>
  </diagram>
  <diagram name="navigation" id="4w6pChSlA89jDrokHiQl">
    <mxGraphModel dx="691" dy="376" grid="1" gridSize="10" guides="1" tooltips="1" connect="1" arrows="1" fold="1" page="1" pageScale="1" pageWidth="480" pageHeight="370" math="0" shadow="0">
      <root>
        <mxCell id="U3qLgpVQFoyrgrADPwvh-0" />
        <mxCell id="U3qLgpVQFoyrgrADPwvh-1" parent="U3qLgpVQFoyrgrADPwvh-0" />
        <mxCell id="qbZsKOHub08wSQJDo6Sm-2" value="" style="rounded=0;whiteSpace=wrap;html=1;" parent="U3qLgpVQFoyrgrADPwvh-1" vertex="1">
          <mxGeometry x="40" y="40" width="400" height="140" as="geometry" />
        </mxCell>
        <mxCell id="eFprR3dcHi8OtoXNwu9K-4" style="edgeStyle=orthogonalEdgeStyle;rounded=0;orthogonalLoop=1;jettySize=auto;html=1;exitX=0.5;exitY=1;exitDx=0;exitDy=0;entryX=0.75;entryY=0;entryDx=0;entryDy=0;fillColor=#dae8fc;strokeColor=#6c8ebf;" parent="U3qLgpVQFoyrgrADPwvh-1" source="eFprR3dcHi8OtoXNwu9K-0" target="eFprR3dcHi8OtoXNwu9K-1" edge="1">
          <mxGeometry relative="1" as="geometry" />
        </mxCell>
        <mxCell id="eFprR3dcHi8OtoXNwu9K-5" style="edgeStyle=orthogonalEdgeStyle;rounded=0;orthogonalLoop=1;jettySize=auto;html=1;exitX=0.5;exitY=1;exitDx=0;exitDy=0;entryX=0.5;entryY=0;entryDx=0;entryDy=0;fillColor=#dae8fc;strokeColor=#6c8ebf;" parent="U3qLgpVQFoyrgrADPwvh-1" source="eFprR3dcHi8OtoXNwu9K-0" target="eFprR3dcHi8OtoXNwu9K-3" edge="1">
          <mxGeometry relative="1" as="geometry" />
        </mxCell>
        <mxCell id="eFprR3dcHi8OtoXNwu9K-6" style="edgeStyle=orthogonalEdgeStyle;rounded=0;orthogonalLoop=1;jettySize=auto;html=1;exitX=0.5;exitY=1;exitDx=0;exitDy=0;entryX=0.25;entryY=0;entryDx=0;entryDy=0;fillColor=#dae8fc;strokeColor=#6c8ebf;" parent="U3qLgpVQFoyrgrADPwvh-1" source="eFprR3dcHi8OtoXNwu9K-0" target="eFprR3dcHi8OtoXNwu9K-2" edge="1">
          <mxGeometry relative="1" as="geometry" />
        </mxCell>
        <mxCell id="eFprR3dcHi8OtoXNwu9K-0" value="MainActivity" style="rounded=0;whiteSpace=wrap;html=1;fontStyle=1;fillColor=#dae8fc;strokeColor=#6c8ebf;" parent="U3qLgpVQFoyrgrADPwvh-1" vertex="1">
          <mxGeometry x="190" y="50" width="100" height="40" as="geometry" />
        </mxCell>
        <mxCell id="eFprR3dcHi8OtoXNwu9K-23" style="edgeStyle=orthogonalEdgeStyle;rounded=0;orthogonalLoop=1;jettySize=auto;html=1;exitX=0.5;exitY=1;exitDx=0;exitDy=0;entryX=0.5;entryY=0;entryDx=0;entryDy=0;fillColor=#d5e8d4;strokeColor=#82b366;" parent="U3qLgpVQFoyrgrADPwvh-1" source="eFprR3dcHi8OtoXNwu9K-1" target="eFprR3dcHi8OtoXNwu9K-20" edge="1">
          <mxGeometry relative="1" as="geometry" />
        </mxCell>
        <mxCell id="eFprR3dcHi8OtoXNwu9K-1" value="Monster&lt;div&gt;Fragment&lt;/div&gt;" style="rounded=0;whiteSpace=wrap;html=1;fontStyle=1;fillColor=#d5e8d4;strokeColor=#82b366;" parent="U3qLgpVQFoyrgrADPwvh-1" vertex="1">
          <mxGeometry x="50" y="130" width="100" height="40" as="geometry" />
        </mxCell>
        <mxCell id="eFprR3dcHi8OtoXNwu9K-24" style="edgeStyle=orthogonalEdgeStyle;rounded=0;orthogonalLoop=1;jettySize=auto;html=1;exitX=0.5;exitY=1;exitDx=0;exitDy=0;entryX=0.5;entryY=0;entryDx=0;entryDy=0;fillColor=#d5e8d4;strokeColor=#82b366;" parent="U3qLgpVQFoyrgrADPwvh-1" source="eFprR3dcHi8OtoXNwu9K-2" target="eFprR3dcHi8OtoXNwu9K-21" edge="1">
          <mxGeometry relative="1" as="geometry" />
        </mxCell>
        <mxCell id="eFprR3dcHi8OtoXNwu9K-2" value="Roster&lt;div&gt;Fragment&lt;/div&gt;" style="rounded=0;whiteSpace=wrap;html=1;fontStyle=1;fillColor=#d5e8d4;strokeColor=#82b366;" parent="U3qLgpVQFoyrgrADPwvh-1" vertex="1">
          <mxGeometry x="330" y="130" width="100" height="40" as="geometry" />
        </mxCell>
        <mxCell id="eFprR3dcHi8OtoXNwu9K-28" style="edgeStyle=orthogonalEdgeStyle;rounded=0;orthogonalLoop=1;jettySize=auto;html=1;exitX=0.5;exitY=1;exitDx=0;exitDy=0;fillColor=#d5e8d4;strokeColor=#82b366;endArrow=classic;endFill=1;entryX=0.5;entryY=0;entryDx=0;entryDy=0;" parent="U3qLgpVQFoyrgrADPwvh-1" source="eFprR3dcHi8OtoXNwu9K-3" target="qbZsKOHub08wSQJDo6Sm-1" edge="1">
          <mxGeometry relative="1" as="geometry">
            <mxPoint x="260" y="190" as="targetPoint" />
          </mxGeometry>
        </mxCell>
        <mxCell id="eFprR3dcHi8OtoXNwu9K-3" value="Move&lt;span style=&quot;background-color: initial;&quot;&gt;Fragment&lt;/span&gt;" style="rounded=0;whiteSpace=wrap;html=1;fontStyle=1;fillColor=#d5e8d4;strokeColor=#82b366;" parent="U3qLgpVQFoyrgrADPwvh-1" vertex="1">
          <mxGeometry x="190" y="130" width="100" height="40" as="geometry" />
        </mxCell>
        <mxCell id="eFprR3dcHi8OtoXNwu9K-7" value="MainViewModel" style="ellipse;whiteSpace=wrap;html=1;fontSize=10;fillColor=#e1d5e7;strokeColor=#9673a6;" parent="U3qLgpVQFoyrgrADPwvh-1" vertex="1">
          <mxGeometry x="50" y="50" width="80" height="20" as="geometry" />
        </mxCell>
        <mxCell id="eFprR3dcHi8OtoXNwu9K-13" value="MainObserver" style="ellipse;whiteSpace=wrap;html=1;fontSize=10;fillColor=#e1d5e7;strokeColor=#9673a6;" parent="U3qLgpVQFoyrgrADPwvh-1" vertex="1">
          <mxGeometry x="50" y="80" width="80" height="20" as="geometry" />
        </mxCell>
        <mxCell id="eFprR3dcHi8OtoXNwu9K-29" style="edgeStyle=orthogonalEdgeStyle;rounded=0;orthogonalLoop=1;jettySize=auto;html=1;exitX=1;exitY=0.5;exitDx=0;exitDy=0;fillColor=#dae8fc;strokeColor=#6c8ebf;endArrow=classic;endFill=1;entryX=0;entryY=0.5;entryDx=0;entryDy=0;" parent="U3qLgpVQFoyrgrADPwvh-1" source="eFprR3dcHi8OtoXNwu9K-20" target="qbZsKOHub08wSQJDo6Sm-1" edge="1">
          <mxGeometry relative="1" as="geometry">
            <mxPoint x="175" y="210" as="targetPoint" />
            <Array as="points">
              <mxPoint x="170" y="230" />
              <mxPoint x="170" y="230" />
            </Array>
          </mxGeometry>
        </mxCell>
        <mxCell id="eFprR3dcHi8OtoXNwu9K-20" value="Monster&lt;div&gt;Activity&lt;/div&gt;" style="rounded=0;whiteSpace=wrap;html=1;fontStyle=1;fillColor=#dae8fc;strokeColor=#6c8ebf;" parent="U3qLgpVQFoyrgrADPwvh-1" vertex="1">
          <mxGeometry x="50" y="210" width="100" height="40" as="geometry" />
        </mxCell>
        <mxCell id="eFprR3dcHi8OtoXNwu9K-30" style="edgeStyle=orthogonalEdgeStyle;rounded=0;orthogonalLoop=1;jettySize=auto;html=1;exitX=0;exitY=0.5;exitDx=0;exitDy=0;entryX=1;entryY=0.5;entryDx=0;entryDy=0;fillColor=#dae8fc;strokeColor=#6c8ebf;endArrow=classic;endFill=1;" parent="U3qLgpVQFoyrgrADPwvh-1" source="eFprR3dcHi8OtoXNwu9K-21" target="qbZsKOHub08wSQJDo6Sm-1" edge="1">
          <mxGeometry relative="1" as="geometry">
            <mxPoint x="280" y="230" as="targetPoint" />
          </mxGeometry>
        </mxCell>
        <mxCell id="eFprR3dcHi8OtoXNwu9K-32" style="edgeStyle=orthogonalEdgeStyle;rounded=0;orthogonalLoop=1;jettySize=auto;html=1;exitX=0.5;exitY=1;exitDx=0;exitDy=0;entryX=0.5;entryY=0;entryDx=0;entryDy=0;fillColor=#dae8fc;strokeColor=#6c8ebf;endArrow=classic;endFill=1;" parent="U3qLgpVQFoyrgrADPwvh-1" source="eFprR3dcHi8OtoXNwu9K-21" target="eFprR3dcHi8OtoXNwu9K-31" edge="1">
          <mxGeometry relative="1" as="geometry" />
        </mxCell>
        <mxCell id="eFprR3dcHi8OtoXNwu9K-21" value="RosterActivity" style="rounded=0;whiteSpace=wrap;html=1;fontStyle=1;fillColor=#dae8fc;strokeColor=#6c8ebf;" parent="U3qLgpVQFoyrgrADPwvh-1" vertex="1">
          <mxGeometry x="330" y="210" width="100" height="40" as="geometry" />
        </mxCell>
        <mxCell id="eFprR3dcHi8OtoXNwu9K-33" style="edgeStyle=orthogonalEdgeStyle;rounded=0;orthogonalLoop=1;jettySize=auto;html=1;exitX=0;exitY=0.5;exitDx=0;exitDy=0;entryX=0.5;entryY=1;entryDx=0;entryDy=0;fillColor=#dae8fc;strokeColor=#6c8ebf;endArrow=classic;endFill=1;curved=1;" parent="U3qLgpVQFoyrgrADPwvh-1" source="eFprR3dcHi8OtoXNwu9K-31" target="qbZsKOHub08wSQJDo6Sm-1" edge="1">
          <mxGeometry relative="1" as="geometry">
            <mxPoint x="240" y="240" as="targetPoint" />
          </mxGeometry>
        </mxCell>
        <mxCell id="eFprR3dcHi8OtoXNwu9K-31" value="BattleActivity" style="rounded=0;whiteSpace=wrap;html=1;fontStyle=1;fillColor=#dae8fc;strokeColor=#6c8ebf;" parent="U3qLgpVQFoyrgrADPwvh-1" vertex="1">
          <mxGeometry x="330" y="290" width="100" height="40" as="geometry" />
        </mxCell>
        <mxCell id="qbZsKOHub08wSQJDo6Sm-1" value="MoveDialog&lt;div&gt;Fragment&lt;/div&gt;" style="rounded=0;whiteSpace=wrap;html=1;fontStyle=1;fillColor=#d5e8d4;strokeColor=#82b366;" parent="U3qLgpVQFoyrgrADPwvh-1" vertex="1">
          <mxGeometry x="190" y="210" width="100" height="40" as="geometry" />
        </mxCell>
        <mxCell id="IUxuWf7QMwEVDEymEsUZ-3" value="" style="ellipse;whiteSpace=wrap;html=1;fillColor=#e1d5e7;strokeColor=#9673a6;spacingLeft=0;align=left;" parent="U3qLgpVQFoyrgrADPwvh-1" vertex="1">
          <mxGeometry x="40" y="320" width="10" height="10" as="geometry" />
        </mxCell>
        <mxCell id="kFAX-HGAgO03dtEYps8W-1" value="" style="rounded=0;whiteSpace=wrap;html=1;fillColor=#dae8fc;strokeColor=#6c8ebf;align=left;spacingLeft=0;" parent="U3qLgpVQFoyrgrADPwvh-1" vertex="1">
          <mxGeometry x="40" y="290" width="10" height="10" as="geometry" />
        </mxCell>
        <mxCell id="kFAX-HGAgO03dtEYps8W-2" value="" style="rounded=0;whiteSpace=wrap;html=1;fillColor=#d5e8d4;strokeColor=#82b366;align=left;spacingLeft=0;" parent="U3qLgpVQFoyrgrADPwvh-1" vertex="1">
          <mxGeometry x="40" y="305" width="10" height="10" as="geometry" />
        </mxCell>
        <mxCell id="LsaZZFJOGqgjOg7lFO8d-0" value="Activity" style="text;html=1;align=left;verticalAlign=middle;whiteSpace=wrap;rounded=0;fontSize=11;" parent="U3qLgpVQFoyrgrADPwvh-1" vertex="1">
          <mxGeometry x="55" y="290" width="65" height="10" as="geometry" />
        </mxCell>
        <mxCell id="LsaZZFJOGqgjOg7lFO8d-1" value="Fragment" style="text;html=1;align=left;verticalAlign=middle;whiteSpace=wrap;rounded=0;fontSize=11;" parent="U3qLgpVQFoyrgrADPwvh-1" vertex="1">
          <mxGeometry x="55" y="305" width="65" height="10" as="geometry" />
        </mxCell>
        <mxCell id="LsaZZFJOGqgjOg7lFO8d-2" value="Lifecycle" style="text;html=1;align=left;verticalAlign=middle;whiteSpace=wrap;rounded=0;fontSize=11;" parent="U3qLgpVQFoyrgrADPwvh-1" vertex="1">
          <mxGeometry x="55" y="320" width="65" height="10" as="geometry" />
        </mxCell>
      </root>
    </mxGraphModel>
  </diagram>
  <diagram id="dLJkEB8W-FpkUL4mMek9" name="data_flow">
    <mxGraphModel dx="1430" dy="778" grid="1" gridSize="10" guides="1" tooltips="1" connect="1" arrows="1" fold="1" page="1" pageScale="1" pageWidth="640" pageHeight="400" math="0" shadow="0">
      <root>
        <mxCell id="0" />
        <mxCell id="1" parent="0" />
        <mxCell id="UDSKS_p3YHgRKUBc8KEk-11" style="edgeStyle=orthogonalEdgeStyle;rounded=0;orthogonalLoop=1;jettySize=auto;html=1;exitX=1;exitY=0.5;exitDx=0;exitDy=0;entryX=0;entryY=0.5;entryDx=0;entryDy=0;fillColor=#d5e8d4;strokeColor=#82b366;" parent="1" source="UDSKS_p3YHgRKUBc8KEk-4" target="UDSKS_p3YHgRKUBc8KEk-10" edge="1">
          <mxGeometry relative="1" as="geometry" />
        </mxCell>
        <mxCell id="UDSKS_p3YHgRKUBc8KEk-4" value="PokeAPI" style="rounded=0;whiteSpace=wrap;html=1;fillColor=#d5e8d4;strokeColor=#82b366;" parent="1" vertex="1">
          <mxGeometry x="40" y="120" width="80" height="40" as="geometry" />
        </mxCell>
        <mxCell id="UDSKS_p3YHgRKUBc8KEk-9" style="edgeStyle=orthogonalEdgeStyle;rounded=0;orthogonalLoop=1;jettySize=auto;html=1;exitX=1;exitY=0.5;exitDx=0;exitDy=0;entryX=0;entryY=0.5;entryDx=0;entryDy=0;fillColor=#dae8fc;strokeColor=#6c8ebf;" parent="1" source="UDSKS_p3YHgRKUBc8KEk-6" target="UDSKS_p3YHgRKUBc8KEk-8" edge="1">
          <mxGeometry relative="1" as="geometry" />
        </mxCell>
        <mxCell id="UDSKS_p3YHgRKUBc8KEk-6" value="&lt;div&gt;Paged GET&lt;/div&gt;&lt;div&gt;call&lt;/div&gt;" style="rounded=1;whiteSpace=wrap;html=1;fontSize=12;glass=0;strokeWidth=1;shadow=0;fillColor=#dae8fc;strokeColor=#6c8ebf;" parent="1" vertex="1">
          <mxGeometry x="360" y="120" width="80" height="40" as="geometry" />
        </mxCell>
        <mxCell id="TzhihRlwXkfzRDoVtFdz-11" value="success" style="edgeStyle=orthogonalEdgeStyle;rounded=0;orthogonalLoop=1;jettySize=auto;html=1;exitX=0.5;exitY=1;exitDx=0;exitDy=0;entryX=0.5;entryY=0;entryDx=0;entryDy=0;fillColor=#ffe6cc;strokeColor=#d79b00;" parent="1" source="UDSKS_p3YHgRKUBc8KEk-8" target="TzhihRlwXkfzRDoVtFdz-10" edge="1">
          <mxGeometry relative="1" as="geometry" />
        </mxCell>
        <mxCell id="othxbwxyigHPS80B9M4s-8" value="fail" style="edgeStyle=orthogonalEdgeStyle;rounded=0;orthogonalLoop=1;jettySize=auto;html=1;exitX=0.5;exitY=0;exitDx=0;exitDy=0;entryX=0.5;entryY=1;entryDx=0;entryDy=0;fillColor=#fff2cc;strokeColor=#d6b656;" parent="1" source="UDSKS_p3YHgRKUBc8KEk-8" target="othxbwxyigHPS80B9M4s-7" edge="1">
          <mxGeometry relative="1" as="geometry">
            <Array as="points">
              <mxPoint x="560" y="100" />
              <mxPoint x="560" y="100" />
            </Array>
          </mxGeometry>
        </mxCell>
        <mxCell id="UDSKS_p3YHgRKUBc8KEk-8" value="" style="rhombus;whiteSpace=wrap;html=1;shadow=0;fontFamily=Helvetica;fontSize=12;align=center;strokeWidth=1;spacing=6;spacingTop=-4;fillColor=#ffe6cc;strokeColor=#d79b00;" parent="1" vertex="1">
          <mxGeometry x="540" y="120" width="40" height="40" as="geometry" />
        </mxCell>
        <mxCell id="UDSKS_p3YHgRKUBc8KEk-12" style="edgeStyle=orthogonalEdgeStyle;rounded=0;orthogonalLoop=1;jettySize=auto;html=1;exitX=1;exitY=0.5;exitDx=0;exitDy=0;entryX=0;entryY=0.5;entryDx=0;entryDy=0;fillColor=#fff2cc;strokeColor=#d6b656;" parent="1" source="UDSKS_p3YHgRKUBc8KEk-10" target="UDSKS_p3YHgRKUBc8KEk-6" edge="1">
          <mxGeometry relative="1" as="geometry" />
        </mxCell>
        <mxCell id="UDSKS_p3YHgRKUBc8KEk-10" value="" style="rhombus;whiteSpace=wrap;html=1;shadow=0;fontFamily=Helvetica;fontSize=12;align=center;strokeWidth=1;spacing=6;spacingTop=-4;fillColor=#fff2cc;strokeColor=#d6b656;" parent="1" vertex="1">
          <mxGeometry x="220" y="120" width="40" height="40" as="geometry" />
        </mxCell>
        <mxCell id="UDSKS_p3YHgRKUBc8KEk-15" style="edgeStyle=orthogonalEdgeStyle;rounded=0;orthogonalLoop=1;jettySize=auto;html=1;exitX=0;exitY=0.5;exitDx=0;exitDy=0;entryX=0.5;entryY=0;entryDx=0;entryDy=0;fillColor=#dae8fc;strokeColor=#6c8ebf;" parent="1" source="UDSKS_p3YHgRKUBc8KEk-13" target="UDSKS_p3YHgRKUBc8KEk-10" edge="1">
          <mxGeometry relative="1" as="geometry" />
        </mxCell>
        <mxCell id="UDSKS_p3YHgRKUBc8KEk-13" value="Reset counter" style="rounded=1;whiteSpace=wrap;html=1;fontSize=12;glass=0;strokeWidth=1;shadow=0;fillColor=#dae8fc;strokeColor=#6c8ebf;" parent="1" vertex="1">
          <mxGeometry x="360" y="40" width="80" height="40" as="geometry" />
        </mxCell>
        <mxCell id="f3-RD8-hImGowp5vCY9n-3" style="edgeStyle=orthogonalEdgeStyle;rounded=0;orthogonalLoop=1;jettySize=auto;html=1;exitX=0;exitY=0.5;exitDx=0;exitDy=0;entryX=1;entryY=0.5;entryDx=0;entryDy=0;fillColor=#d5e8d4;strokeColor=#82b366;" parent="1" source="TzhihRlwXkfzRDoVtFdz-4" target="TzhihRlwXkfzRDoVtFdz-6" edge="1">
          <mxGeometry relative="1" as="geometry" />
        </mxCell>
        <mxCell id="TzhihRlwXkfzRDoVtFdz-4" value="LiveData" style="rounded=0;whiteSpace=wrap;html=1;fillColor=#d5e8d4;strokeColor=#82b366;" parent="1" vertex="1">
          <mxGeometry x="520" y="280" width="80" height="40" as="geometry" />
        </mxCell>
        <mxCell id="f3-RD8-hImGowp5vCY9n-4" style="edgeStyle=orthogonalEdgeStyle;rounded=0;orthogonalLoop=1;jettySize=auto;html=1;exitX=0;exitY=0.5;exitDx=0;exitDy=0;entryX=1;entryY=0.5;entryDx=0;entryDy=0;fillColor=#dae8fc;strokeColor=#6c8ebf;" parent="1" source="TzhihRlwXkfzRDoVtFdz-6" target="TzhihRlwXkfzRDoVtFdz-8" edge="1">
          <mxGeometry relative="1" as="geometry" />
        </mxCell>
        <mxCell id="TzhihRlwXkfzRDoVtFdz-6" value="Cache in" style="rounded=1;whiteSpace=wrap;html=1;fontSize=12;glass=0;strokeWidth=1;shadow=0;fillColor=#dae8fc;strokeColor=#6c8ebf;" parent="1" vertex="1">
          <mxGeometry x="360" y="280" width="80" height="40" as="geometry" />
        </mxCell>
        <mxCell id="f3-RD8-hImGowp5vCY9n-5" style="edgeStyle=orthogonalEdgeStyle;rounded=0;orthogonalLoop=1;jettySize=auto;html=1;exitX=0.5;exitY=0;exitDx=0;exitDy=0;entryX=0.5;entryY=1;entryDx=0;entryDy=0;fillColor=#d5e8d4;strokeColor=#82b366;" parent="1" source="TzhihRlwXkfzRDoVtFdz-8" target="othxbwxyigHPS80B9M4s-2" edge="1">
          <mxGeometry relative="1" as="geometry" />
        </mxCell>
        <mxCell id="D08zNYmoXYLdRIyxELkC-4" style="rounded=0;orthogonalLoop=1;jettySize=auto;html=1;exitX=0.25;exitY=1;exitDx=0;exitDy=0;entryX=0.5;entryY=0;entryDx=0;entryDy=0;endArrow=none;endFill=0;fillColor=#d5e8d4;strokeColor=#82b366;" parent="1" source="TzhihRlwXkfzRDoVtFdz-8" target="D08zNYmoXYLdRIyxELkC-1" edge="1">
          <mxGeometry relative="1" as="geometry" />
        </mxCell>
        <mxCell id="D08zNYmoXYLdRIyxELkC-5" style="rounded=0;orthogonalLoop=1;jettySize=auto;html=1;exitX=0.5;exitY=1;exitDx=0;exitDy=0;entryX=0.5;entryY=0;entryDx=0;entryDy=0;endArrow=none;endFill=0;fillColor=#d5e8d4;strokeColor=#82b366;" parent="1" source="TzhihRlwXkfzRDoVtFdz-8" target="D08zNYmoXYLdRIyxELkC-2" edge="1">
          <mxGeometry relative="1" as="geometry" />
        </mxCell>
        <mxCell id="D08zNYmoXYLdRIyxELkC-6" style="rounded=0;orthogonalLoop=1;jettySize=auto;html=1;exitX=0.75;exitY=1;exitDx=0;exitDy=0;entryX=0.5;entryY=0;entryDx=0;entryDy=0;endArrow=none;endFill=0;fillColor=#d5e8d4;strokeColor=#82b366;" parent="1" source="TzhihRlwXkfzRDoVtFdz-8" target="D08zNYmoXYLdRIyxELkC-3" edge="1">
          <mxGeometry relative="1" as="geometry" />
        </mxCell>
        <mxCell id="TzhihRlwXkfzRDoVtFdz-8" value="Main&lt;div&gt;ViewModel&lt;/div&gt;" style="rounded=0;whiteSpace=wrap;html=1;fillColor=#d5e8d4;strokeColor=#82b366;" parent="1" vertex="1">
          <mxGeometry x="200" y="280" width="80" height="40" as="geometry" />
        </mxCell>
        <mxCell id="othxbwxyigHPS80B9M4s-10" value="last page" style="edgeStyle=orthogonalEdgeStyle;rounded=0;orthogonalLoop=1;jettySize=auto;html=1;exitX=1;exitY=0.5;exitDx=0;exitDy=0;entryX=1;entryY=0.5;entryDx=0;entryDy=0;fillColor=#ffe6cc;strokeColor=#d79b00;" parent="1" source="TzhihRlwXkfzRDoVtFdz-10" target="othxbwxyigHPS80B9M4s-7" edge="1">
          <mxGeometry x="-0.7" relative="1" as="geometry">
            <Array as="points">
              <mxPoint x="600" y="220" />
              <mxPoint x="600" y="60" />
            </Array>
            <mxPoint as="offset" />
          </mxGeometry>
        </mxCell>
        <mxCell id="f3-RD8-hImGowp5vCY9n-2" value="has next" style="edgeStyle=orthogonalEdgeStyle;rounded=0;orthogonalLoop=1;jettySize=auto;html=1;exitX=0.5;exitY=1;exitDx=0;exitDy=0;entryX=0.5;entryY=0;entryDx=0;entryDy=0;fillColor=#ffe6cc;strokeColor=#d79b00;" parent="1" source="TzhihRlwXkfzRDoVtFdz-10" target="TzhihRlwXkfzRDoVtFdz-4" edge="1">
          <mxGeometry relative="1" as="geometry" />
        </mxCell>
        <mxCell id="TzhihRlwXkfzRDoVtFdz-10" value="" style="rhombus;whiteSpace=wrap;html=1;shadow=0;fontFamily=Helvetica;fontSize=12;align=center;strokeWidth=1;spacing=6;spacingTop=-4;fillColor=#ffe6cc;strokeColor=#d79b00;" parent="1" vertex="1">
          <mxGeometry x="540" y="200" width="40" height="40" as="geometry" />
        </mxCell>
        <mxCell id="f3-RD8-hImGowp5vCY9n-6" style="edgeStyle=orthogonalEdgeStyle;rounded=0;orthogonalLoop=1;jettySize=auto;html=1;exitX=0.5;exitY=0;exitDx=0;exitDy=0;entryX=0.5;entryY=1;entryDx=0;entryDy=0;fillColor=#dae8fc;strokeColor=#6c8ebf;" parent="1" source="othxbwxyigHPS80B9M4s-2" target="UDSKS_p3YHgRKUBc8KEk-10" edge="1">
          <mxGeometry relative="1" as="geometry" />
        </mxCell>
        <mxCell id="othxbwxyigHPS80B9M4s-2" value="Increment page" style="rounded=1;whiteSpace=wrap;html=1;fontSize=12;glass=0;strokeWidth=1;shadow=0;fillColor=#dae8fc;strokeColor=#6c8ebf;" parent="1" vertex="1">
          <mxGeometry x="200" y="200" width="80" height="40" as="geometry" />
        </mxCell>
        <mxCell id="othxbwxyigHPS80B9M4s-9" style="edgeStyle=orthogonalEdgeStyle;rounded=0;orthogonalLoop=1;jettySize=auto;html=1;exitX=0;exitY=0.5;exitDx=0;exitDy=0;entryX=1;entryY=0.5;entryDx=0;entryDy=0;fillColor=#fff2cc;strokeColor=#d6b656;" parent="1" source="othxbwxyigHPS80B9M4s-7" target="UDSKS_p3YHgRKUBc8KEk-13" edge="1">
          <mxGeometry relative="1" as="geometry" />
        </mxCell>
        <mxCell id="othxbwxyigHPS80B9M4s-7" value="" style="rhombus;whiteSpace=wrap;html=1;shadow=0;fontFamily=Helvetica;fontSize=12;align=center;strokeWidth=1;spacing=6;spacingTop=-4;fillColor=#fff2cc;strokeColor=#d6b656;" parent="1" vertex="1">
          <mxGeometry x="540" y="40" width="40" height="40" as="geometry" />
        </mxCell>
        <mxCell id="D08zNYmoXYLdRIyxELkC-1" value="MonsterFragment" style="ellipse;whiteSpace=wrap;html=1;fontSize=10;fillColor=#e1d5e7;strokeColor=#9673a6;" parent="1" vertex="1">
          <mxGeometry x="100" y="340" width="80" height="20" as="geometry" />
        </mxCell>
        <mxCell id="D08zNYmoXYLdRIyxELkC-2" value="MoveFragment" style="ellipse;whiteSpace=wrap;html=1;fontSize=10;fillColor=#e1d5e7;strokeColor=#9673a6;" parent="1" vertex="1">
          <mxGeometry x="200" y="340" width="80" height="20" as="geometry" />
        </mxCell>
        <mxCell id="D08zNYmoXYLdRIyxELkC-3" value="RosterFragment" style="ellipse;whiteSpace=wrap;html=1;fontSize=10;fillColor=#e1d5e7;strokeColor=#9673a6;" parent="1" vertex="1">
          <mxGeometry x="300" y="340" width="80" height="20" as="geometry" />
        </mxCell>
        <mxCell id="G3eecdiZuxJLYT_JEbZz-4" value="" style="rhombus;whiteSpace=wrap;html=1;fillColor=#ffe6cc;strokeColor=#d79b00;align=left;spacingLeft=0;" parent="1" vertex="1">
          <mxGeometry x="40" y="280" width="10" height="10" as="geometry" />
        </mxCell>
        <mxCell id="G3eecdiZuxJLYT_JEbZz-5" value="" style="rhombus;whiteSpace=wrap;html=1;fillColor=#fff2cc;strokeColor=#d6b656;align=left;spacingLeft=0;" parent="1" vertex="1">
          <mxGeometry x="40" y="295" width="10" height="10" as="geometry" />
        </mxCell>
        <mxCell id="mP4_YjTMOJpcx10wmruf-1" value="" style="ellipse;whiteSpace=wrap;html=1;fillColor=#e1d5e7;strokeColor=#9673a6;spacingLeft=0;align=left;" parent="1" vertex="1">
          <mxGeometry x="40" y="310" width="10" height="10" as="geometry" />
        </mxCell>
        <mxCell id="mP4_YjTMOJpcx10wmruf-3" value="" style="rounded=0;whiteSpace=wrap;html=1;fillColor=#d5e8d4;strokeColor=#82b366;align=left;spacingLeft=0;" parent="1" vertex="1">
          <mxGeometry x="40" y="250" width="10" height="10" as="geometry" />
        </mxCell>
        <mxCell id="mP4_YjTMOJpcx10wmruf-4" value="State" style="text;html=1;align=left;verticalAlign=middle;whiteSpace=wrap;rounded=0;fontSize=11;" parent="1" vertex="1">
          <mxGeometry x="55" y="250" width="65" height="10" as="geometry" />
        </mxCell>
        <mxCell id="mP4_YjTMOJpcx10wmruf-5" value="Action" style="text;html=1;align=left;verticalAlign=middle;whiteSpace=wrap;rounded=0;fontSize=11;" parent="1" vertex="1">
          <mxGeometry x="55" y="265" width="65" height="10" as="geometry" />
        </mxCell>
        <mxCell id="mP4_YjTMOJpcx10wmruf-6" value="Fragment" style="text;html=1;align=left;verticalAlign=middle;whiteSpace=wrap;rounded=0;fontSize=11;" parent="1" vertex="1">
          <mxGeometry x="55" y="310" width="65" height="10" as="geometry" />
        </mxCell>
        <mxCell id="mP4_YjTMOJpcx10wmruf-7" value="Decision" style="text;html=1;align=left;verticalAlign=middle;whiteSpace=wrap;rounded=0;fontSize=11;" parent="1" vertex="1">
          <mxGeometry x="55" y="280" width="65" height="10" as="geometry" />
        </mxCell>
        <mxCell id="mP4_YjTMOJpcx10wmruf-8" value="Join" style="text;html=1;align=left;verticalAlign=middle;whiteSpace=wrap;rounded=0;fontSize=11;" parent="1" vertex="1">
          <mxGeometry x="55" y="295" width="65" height="10" as="geometry" />
        </mxCell>
        <mxCell id="liRUyM9pgEopGM6tk5tb-1" value="" style="rounded=1;whiteSpace=wrap;html=1;fillColor=#dae8fc;strokeColor=#6c8ebf;" vertex="1" parent="1">
          <mxGeometry x="40" y="265" width="10" height="10" as="geometry" />
        </mxCell>
      </root>
    </mxGraphModel>
  </diagram>
</mxfile>
